<?xml version="1.0" encoding="utf-8"?>
<!-- Generator: Adobe Illustrator 15.1.0, SVG Export Plug-In . SVG Version: 6.00 Build 0)  -->
<!DOCTYPE svg PUBLIC "-//W3C//DTD SVG 1.1//EN" "http://www.w3.org/Graphics/SVG/1.1/DTD/svg11.dtd">
<svg version="1.1" id="Layer_1" xmlns="http://www.w3.org/2000/svg" xmlns:xlink="http://www.w3.org/1999/xlink" x="0px" y="0px"
	 width="157.104px" height="200.184px" viewBox="0 0 157.104 200.184" enable-background="new 0 0 157.104 200.184"
	 xml:space="preserve">
<g>
	<path fill="#0000FF" d="M78.756,154.41c-41.546,0-75.346-33.8-75.346-75.346S37.21,3.719,78.756,3.719s75.347,33.801,75.347,75.347
		S120.302,154.41,78.756,154.41z M78.756,25.246c-29.676,0-53.817,24.144-53.817,53.818s24.143,53.817,53.817,53.817
		c29.677,0,53.819-24.143,53.819-53.817S108.433,25.246,78.756,25.246z"/>
</g>
<g>
	<path fill="#0000FF" d="M79.756,196.183c-24.575,0-48.765-6.442-69.951-18.631l10.732-18.66
		c17.928,10.312,38.405,15.764,59.219,15.764c20.812,0,41.288-5.449,59.216-15.762l10.732,18.662
		C128.517,189.741,104.329,196.183,79.756,196.183z"/>
</g>
</svg>
